<svg width="240" height="234" viewBox="0 0 240 234" fill="none" xmlns="http://www.w3.org/2000/svg">
<g clip-path="url(#clip0_3_2)">
<path d="M169.589 29.5406C190.241 42.0644 207.374 63.0481 216.106 89.5389C224.839 116.03 223.544 143.101 214.38 165.412C205.133 187.938 187.9 205.654 164.874 213.235C149.866 218.178 111.616 217.863 94.666 214.512C51.0039 205.886 18 166.009 18 118.136C18 41.6829 108.711 -7.38403 169.589 29.5406Z" fill="#FF802B"/>
<path d="M165.522 36.2586C146.629 24.7964 124.565 21.1138 103.813 27.9481C83.0781 34.7657 67.5059 50.8227 59.1221 71.2756C50.6719 91.8777 49.4766 116.925 57.5615 141.558C57.5947 141.658 57.6279 141.741 57.6611 141.84C65.8125 166.457 81.6504 185.898 100.709 197.46C119.618 208.922 141.682 212.604 162.417 205.77C183.152 198.952 198.725 182.895 207.108 162.443C215.575 141.791 216.754 116.693 208.619 92.0104C200.484 67.3443 184.613 47.8369 165.522 36.2586Z" fill="#FEEACE"/>
<path d="M138.096 123.726C138.195 123.66 138.295 123.594 138.411 123.544C138.577 123.461 138.743 123.378 138.909 123.312C139.44 122.98 139.922 122.598 140.354 122.167C141.781 120.724 142.661 118.7 142.661 116.478C142.661 114.255 141.781 112.214 140.354 110.788C139.208 109.61 137.681 108.797 135.954 108.565C135.722 108.565 135.489 108.532 135.273 108.499C135.124 108.499 134.975 108.482 134.825 108.482C132.684 108.482 130.758 109.361 129.347 110.771C129.247 110.904 129.147 111.053 129.015 111.169C128.948 111.236 128.882 111.302 128.815 111.368C127.687 112.762 127.006 114.537 127.006 116.511C127.006 118.75 127.886 120.774 129.313 122.2C130.725 123.627 132.684 124.523 134.825 124.523C136.004 124.44 137.1 124.191 138.096 123.726Z" fill="#FFB34A"/>
<path d="M126.209 102.809C127.936 101.681 129.895 100.885 132.02 100.503L132.933 48.7161C130.16 45.8961 126.591 44.3037 122.673 43.7231C118.655 43.1259 114.289 43.607 110.022 44.9506C105.656 46.344 101.439 48.5999 97.8701 51.5858C93.1719 55.5005 89.5361 60.6262 88.0918 66.5314L126.209 102.809Z" fill="#FFB34A"/>
<path d="M118.854 116.842C118.854 116.71 118.854 116.56 118.854 116.428C118.854 113.691 119.535 111.086 120.747 108.814L83.9082 73.7803C76.8193 81.7425 72.2041 90.136 70.9756 99.1266C69.7471 108.3 72.0049 118.319 78.8115 129.416L118.854 116.842Z" fill="#FFB34A"/>
<path d="M126.192 130.03C125.213 129.399 124.316 128.653 123.52 127.84C122.59 126.895 121.76 125.833 121.096 124.688L81.667 137.063C82.5303 148.675 85.585 157.732 91.0303 164.018C96.21 169.99 103.747 173.556 113.824 174.552L126.192 130.03Z" fill="#FFB34A"/>
<path d="M138.66 132.136C137.432 132.452 136.137 132.618 134.809 132.618C134.493 132.618 134.211 132.601 133.912 132.601L121.195 178.317C124.333 182.663 128.882 185.798 133.912 187.606C137.913 189.049 142.246 189.647 146.446 189.381C150.53 189.099 154.465 187.988 157.802 185.964C160.84 184.123 163.396 181.535 165.14 178.151L138.66 132.136Z" fill="#FFB34A"/>
<path d="M150.779 117.805C150.447 121.703 148.754 125.219 146.164 127.84C146.048 127.956 145.932 128.072 145.782 128.205L171.116 172.18C180.795 167.684 187.319 161.58 190.606 153.17C194.076 144.262 194.093 132.568 190.557 117.241L150.779 117.805Z" fill="#FFB34A"/>
<path d="M147.575 106.674C148.272 107.603 148.887 108.615 149.368 109.693L190.49 109.112C192.134 100.387 191.104 92.2095 187.934 85.5245C184.829 78.9889 179.633 73.8467 172.909 70.9604L147.575 106.674Z" fill="#FFB34A" stroke="#FEA832" stroke-width="0.216" stroke-miterlimit="2.6131"/>
<path d="M140.138 101.183C140.503 101.316 140.852 101.465 141.2 101.615L166.916 65.3537C164.359 57.292 160.757 52.4317 156.291 50.2255C152.157 48.1686 146.994 48.2516 141.034 50.0762L140.138 101.183Z" fill="#FFB34A"/>
</g>
<defs>
<clipPath id="clip0_3_2">
<rect width="204" height="200" fill="white" transform="translate(18 17)"/>
</clipPath>
</defs>
</svg>
