<svg width="439" height="178" viewBox="0 0 439 178" fill="none" xmlns="http://www.w3.org/2000/svg">
<path d="M392.21 124.115C388.664 124.115 385.619 123.633 383.073 122.67C380.528 121.724 378.483 120.451 376.937 118.851C375.392 117.251 374.319 115.479 373.719 113.533L382.61 111.379C383.01 112.197 383.592 113.006 384.355 113.806C385.119 114.624 386.146 115.297 387.437 115.824C388.746 116.37 390.392 116.642 392.373 116.642C395.173 116.642 397.492 115.961 399.328 114.597C401.164 113.251 402.083 111.033 402.083 107.942V100.006H401.592C401.083 101.024 400.337 102.07 399.355 103.142C398.392 104.215 397.11 105.115 395.51 105.842C393.928 106.57 391.937 106.933 389.537 106.933C386.319 106.933 383.401 106.179 380.783 104.67C378.183 103.142 376.11 100.87 374.564 97.8515C373.037 94.8151 372.273 91.0151 372.273 86.4515C372.273 81.8515 373.037 77.9697 374.564 74.806C376.11 71.6242 378.192 69.2151 380.81 67.5787C383.428 65.9242 386.346 65.0969 389.564 65.0969C392.019 65.0969 394.037 65.5151 395.619 66.3515C397.219 67.1696 398.492 68.1606 399.437 69.3242C400.383 70.4696 401.101 71.5515 401.592 72.5697H402.137V65.6424H411.873V108.215C411.873 111.797 411.019 114.761 409.31 117.106C407.601 119.451 405.264 121.206 402.301 122.37C399.337 123.533 395.973 124.115 392.21 124.115ZM392.292 99.1878C394.383 99.1878 396.164 98.6788 397.637 97.6606C399.11 96.6424 400.228 95.1787 400.992 93.2697C401.755 91.3606 402.137 89.0697 402.137 86.3969C402.137 83.7606 401.755 81.4515 400.992 79.4697C400.246 77.4878 399.137 75.9515 397.664 74.8606C396.21 73.7515 394.419 73.1969 392.292 73.1969C390.092 73.1969 388.255 73.7697 386.783 74.9151C385.31 76.0606 384.201 77.6333 383.455 79.6333C382.71 81.6151 382.337 83.8697 382.337 86.3969C382.337 88.9606 382.71 91.206 383.455 93.1333C384.219 95.0424 385.337 96.5333 386.81 97.606C388.301 98.6606 390.128 99.1878 392.292 99.1878Z" fill="#09090B"/>
<path d="M350.916 108.351C346.825 108.351 343.279 107.451 340.279 105.651C337.279 103.851 334.952 101.333 333.297 98.0969C331.661 94.8606 330.843 91.0787 330.843 86.7515C330.843 82.4242 331.661 78.6333 333.297 75.3787C334.952 72.1242 337.279 69.5969 340.279 67.7969C343.279 65.9969 346.825 65.0969 350.916 65.0969C355.006 65.0969 358.552 65.9969 361.552 67.7969C364.552 69.5969 366.87 72.1242 368.506 75.3787C370.161 78.6333 370.988 82.4242 370.988 86.7515C370.988 91.0787 370.161 94.8606 368.506 98.0969C366.87 101.333 364.552 103.851 361.552 105.651C358.552 107.451 355.006 108.351 350.916 108.351ZM350.97 100.442C353.188 100.442 355.043 99.8333 356.534 98.6151C358.025 97.3787 359.134 95.7242 359.861 93.6515C360.606 91.5787 360.979 89.2697 360.979 86.7242C360.979 84.1606 360.606 81.8424 359.861 79.7697C359.134 77.6787 358.025 76.0151 356.534 74.7787C355.043 73.5424 353.188 72.9242 350.97 72.9242C348.697 72.9242 346.806 73.5424 345.297 74.7787C343.806 76.0151 342.688 77.6787 341.943 79.7697C341.216 81.8424 340.852 84.1606 340.852 86.7242C340.852 89.2697 341.216 91.5787 341.943 93.6515C342.688 95.7242 343.806 97.3787 345.297 98.6151C346.806 99.8333 348.697 100.442 350.97 100.442Z" fill="#09090B"/>
<path d="M327.866 51.6787V107.533H317.993V51.6787H327.866Z" fill="#09090B"/>
<path d="M275.431 107.533V51.6787H285.303V72.5696H285.712C286.222 71.5514 286.94 70.4696 287.867 69.3242C288.794 68.1605 290.049 67.1696 291.631 66.3514C293.212 65.5151 295.231 65.0969 297.685 65.0969C300.922 65.0969 303.84 65.9242 306.44 67.5787C309.058 69.2151 311.131 71.6424 312.658 74.8605C314.203 78.0605 314.976 81.9878 314.976 86.6423C314.976 91.2424 314.222 95.1514 312.712 98.3696C311.203 101.588 309.149 104.042 306.549 105.733C303.949 107.424 301.003 108.27 297.712 108.27C295.312 108.27 293.322 107.87 291.74 107.07C290.158 106.27 288.885 105.306 287.922 104.179C286.976 103.033 286.24 101.951 285.712 100.933H285.14V107.533H275.431ZM285.112 86.5878C285.112 89.2969 285.494 91.6696 286.258 93.706C287.04 95.7424 288.158 97.3333 289.612 98.4787C291.085 99.606 292.867 100.17 294.958 100.17C297.14 100.17 298.967 99.5878 300.44 98.4242C301.912 97.2424 303.022 95.6333 303.767 93.5969C304.531 91.5424 304.912 89.206 304.912 86.5878C304.912 83.9878 304.54 81.6787 303.794 79.6605C303.049 77.6424 301.94 76.0605 300.467 74.9151C298.994 73.7696 297.158 73.1969 294.958 73.1969C292.849 73.1969 291.058 73.7514 289.585 74.8605C288.112 75.9696 286.994 77.5242 286.231 79.5242C285.485 81.5242 285.112 83.8787 285.112 86.5878Z" fill="#09090B"/>
<path d="M243.443 82.9878V107.533H233.57V65.6424H243.007V72.7606H243.498C244.461 70.4151 245.998 68.5515 248.107 67.1696C250.234 65.7878 252.861 65.0969 255.988 65.0969C258.879 65.0969 261.398 65.7151 263.543 66.9515C265.707 68.1878 267.379 69.9787 268.561 72.3242C269.761 74.6697 270.352 77.5151 270.334 80.8606V107.533H260.461V82.3878C260.461 79.5878 259.734 77.3969 258.279 75.8151C256.843 74.2333 254.852 73.4424 252.307 73.4424C250.579 73.4424 249.043 73.8242 247.698 74.5878C246.37 75.3333 245.325 76.4151 244.561 77.8333C243.816 79.2515 243.443 80.9697 243.443 82.9878Z" fill="#09090B"/>
<path d="M211.968 108.351C207.768 108.351 204.14 107.479 201.086 105.733C198.049 103.97 195.713 101.479 194.077 98.2606C192.44 95.0242 191.622 91.2151 191.622 86.8333C191.622 82.5242 192.44 78.7424 194.077 75.4878C195.731 72.2151 198.04 69.6696 201.004 67.8515C203.968 66.0151 207.449 65.0969 211.449 65.0969C214.031 65.0969 216.468 65.5151 218.758 66.3515C221.068 67.1696 223.104 68.4424 224.868 70.1696C226.649 71.8969 228.049 74.0969 229.068 76.7697C230.086 79.4242 230.595 82.5878 230.595 86.2606V89.2878H196.258V82.6333H221.131C221.113 80.7424 220.704 79.0606 219.904 77.5878C219.104 76.0969 217.986 74.9242 216.549 74.0697C215.131 73.2151 213.477 72.7878 211.586 72.7878C209.568 72.7878 207.795 73.2787 206.268 74.2606C204.74 75.2242 203.549 76.4969 202.695 78.0787C201.858 79.6424 201.431 81.3606 201.413 83.2333V89.0424C201.413 91.4787 201.858 93.5697 202.749 95.3151C203.64 97.0424 204.886 98.3697 206.486 99.2969C208.086 100.206 209.958 100.661 212.104 100.661C213.54 100.661 214.84 100.461 216.004 100.061C217.168 99.6424 218.177 99.0333 219.031 98.2333C219.886 97.4333 220.531 96.4424 220.968 95.2606L230.186 96.2969C229.604 98.7333 228.495 100.861 226.858 102.679C225.24 104.479 223.168 105.879 220.64 106.879C218.113 107.861 215.222 108.351 211.968 108.351Z" fill="#09090B"/>
<path d="M156.327 107.533V101.261L177.927 74.1787V73.8242H157.036V65.6423H190.009V72.3787L169.445 98.9969V99.3514H190.718V107.533H156.327Z" fill="#09090B"/>
<g transform="translate(11, 25) scale(0.2415)">
<path d="M292.046 0L292.372 0.00440121C299.191 0.177748 304.666 5.75974 304.666 12.6191V52.8022C304.666 65.7453 315.159 76.2376 328.102 76.2377H517.383C524.239 76.2379 529.822 81.7144 529.998 88.5338L530.002 88.8595V132.024C530 138.993 524.35 144.643 517.383 144.643H463.74C452.149 144.643 442.499 153.082 440.333 164.221C435.238 190.418 427.613 215.989 417.44 240.936L417.434 240.95L417.428 240.964C402.806 277.395 382.837 311.698 357.505 343.871L357.492 343.888L357.48 343.903C350.091 353.436 342.252 362.67 333.981 371.623C329.747 376.207 330.604 383.669 336.117 386.996C364.101 403.88 394.694 418.135 427.867 429.764L427.904 429.777L427.942 429.789C455.983 439.166 485.552 446.576 516.642 452.028C523.831 453.289 528.604 460.081 527.318 467.069L517.609 519.821C516.377 526.514 510.116 530.937 503.574 529.833C465.797 523.459 430.163 514.105 396.666 501.782L396.643 501.774L396.62 501.765L393.018 500.464C355.9 486.929 321.807 470.451 290.718 451.049C286.929 448.607 283.184 446.126 279.486 443.607L277.897 442.52C269.727 436.911 258.949 436.84 250.703 442.329C220.576 462.384 187.216 479.85 150.6 494.698L150.592 494.701L150.584 494.705C112.226 510.402 70.8593 522.092 26.4696 529.758C20.0174 530.872 13.8171 526.597 12.4457 520.056L12.3841 519.742L2.72786 467.263C1.43602 460.227 6.28854 453.387 13.5583 452.168C50.4175 445.986 84.8128 436.713 116.728 424.334L116.742 424.328L116.757 424.322C138.87 415.602 159.673 405.826 179.167 395.003C192.388 387.663 194.34 370.27 185.008 359.286C169.021 340.466 154.768 320.701 142.249 299.992L141.043 297.985C126.264 272.912 114.074 246.626 104.475 219.12C102.244 212.728 105.897 205.676 112.659 203.655L112.658 203.654L159.637 189.624C166.277 187.64 173.499 191.417 175.929 198.3C183.502 219.768 193.22 240.358 205.083 260.063L205.117 260.118C217.388 279.964 231.705 298.657 248.056 316.194C256.896 325.677 271.85 325.655 280.65 316.121C285.845 310.493 290.834 304.734 295.61 298.839C317.55 272.259 334.856 243.82 347.488 213.542C353.246 200.164 358.006 186.581 361.777 172.798C365.788 158.133 354.278 144.643 339.659 144.643H12.6191C5.76091 144.643 0.178597 139.168 0.00440119 132.349L0 132.023V88.8595C0.00279536 81.998 5.47498 76.4165 12.2864 76.2421L12.6121 76.2377H201.909C214.852 76.2377 225.345 65.7453 225.345 52.8022V12.6191C225.345 5.64986 230.995 0 237.964 0H292.046Z" fill="#FF5500"/>
</g>
</svg>
