<svg width="178" height="178" viewBox="0 0 178 178" fill="none" xmlns="http://www.w3.org/2000/svg">
<g clip-path="url(#clip0_466_205)">
<path d="M124.758 134.631C126.091 135.963 126.367 137.737 125.587 139.953C124.909 142.271 123.259 144.741 120.638 147.362C116.019 151.981 111.176 154.877 106.107 156.05C93.6744 158.846 81.6855 158.841 70.1405 156.034C58.698 153.329 48.5174 147.517 39.5986 138.599C32.6277 131.628 27.8276 124.331 25.1984 116.709C22.6941 108.962 22.2425 101.52 23.8436 94.3827C25.672 87.2235 29.3325 80.8977 34.825 75.4052C43.0636 67.1665 53.0827 62.5807 64.8823 61.6477C76.6818 60.7147 90.5895 62.3892 106.605 66.6712L80.6378 42.2016C78.2577 40.0711 77.4512 37.3922 78.2182 34.1647C79.2127 30.915 81.1454 27.8546 84.0165 24.9835C87.0123 21.9877 90.1976 19.9301 93.5721 18.8108C97.1741 17.6693 100 18.1236 102.05 20.1739C106.766 24.8896 112.634 31.6311 119.654 40.3985C121.169 42.1636 123.892 45.3862 127.823 50.0663C131.857 54.8489 135.36 58.7267 138.333 61.6996C139.358 62.7247 141.806 64.1732 145.675 66.045C146.312 66.4327 147.598 67.0945 149.532 68.0304C151.569 69.0688 153.101 70.1006 154.126 71.1257C155.766 72.766 156.225 74.9724 155.502 77.7452C154.882 80.6204 152.762 83.8681 149.142 87.4881C145.148 91.4826 141.258 93.8345 137.474 94.5437C133.689 95.2529 129.283 94.841 124.255 93.3082C110.058 88.8477 97.0749 86.3506 85.3068 85.817C73.6634 85.1586 65.0955 87.5757 59.6031 93.0681C56.1079 96.5633 54.5695 100.767 54.988 105.679C55.4064 110.592 58.2298 115.662 63.458 120.89C69.1988 126.631 76.7385 130.675 86.077 133.024C95.5181 135.474 106.154 135.5 117.985 133.1C120.963 132.583 123.22 133.093 124.758 134.631Z" fill="#FD481E"/>
</g>
<defs>
<clipPath id="clip0_466_205">
<rect width="178" height="178" fill="white"/>
</clipPath>
</defs>
</svg>
