<svg width="530" height="530" viewBox="0 0 530 530" fill="none" xmlns="http://www.w3.org/2000/svg">
<path d="M292.046 0L292.372 0.00440121C299.191 0.177748 304.666 5.75974 304.666 12.6191V52.8022C304.666 65.7453 315.159 76.2376 328.102 76.2377H517.383C524.239 76.2379 529.822 81.7144 529.998 88.5338L530.002 88.8595V132.024C530 138.993 524.35 144.643 517.383 144.643H463.74C452.149 144.643 442.499 153.082 440.333 164.221C435.238 190.418 427.613 215.989 417.44 240.936L417.434 240.95L417.428 240.964C402.806 277.395 382.837 311.698 357.505 343.871L357.492 343.888L357.48 343.903C350.091 353.436 342.252 362.67 333.981 371.623C329.747 376.207 330.604 383.669 336.117 386.996C364.101 403.88 394.694 418.135 427.867 429.764L427.904 429.777L427.942 429.789C455.983 439.166 485.552 446.576 516.642 452.028C523.831 453.289 528.604 460.081 527.318 467.069L517.609 519.821C516.377 526.514 510.116 530.937 503.574 529.833C465.797 523.459 430.163 514.105 396.666 501.782L396.643 501.774L396.62 501.765L393.018 500.464C355.9 486.929 321.807 470.451 290.718 451.049C286.929 448.607 283.184 446.126 279.486 443.607L277.897 442.52C269.727 436.911 258.949 436.84 250.703 442.329C220.576 462.384 187.216 479.85 150.6 494.698L150.592 494.701L150.584 494.705C112.226 510.402 70.8593 522.092 26.4696 529.758C20.0174 530.872 13.8171 526.597 12.4457 520.056L12.3841 519.742L2.72786 467.263C1.43602 460.227 6.28854 453.387 13.5583 452.168C50.4175 445.986 84.8128 436.713 116.728 424.334L116.742 424.328L116.757 424.322C138.87 415.602 159.673 405.826 179.167 395.003C192.388 387.663 194.34 370.27 185.008 359.286C169.021 340.466 154.768 320.701 142.249 299.992L141.043 297.985C126.264 272.912 114.074 246.626 104.475 219.12C102.244 212.728 105.897 205.676 112.659 203.655L112.658 203.654L159.637 189.624C166.277 187.64 173.499 191.417 175.929 198.3C183.502 219.768 193.22 240.358 205.083 260.063L205.117 260.118C217.388 279.964 231.705 298.657 248.056 316.194C256.896 325.677 271.85 325.655 280.65 316.121C285.845 310.493 290.834 304.734 295.61 298.839C317.55 272.259 334.856 243.82 347.488 213.542C353.246 200.164 358.006 186.581 361.777 172.798C365.788 158.133 354.278 144.643 339.659 144.643H12.6191C5.76091 144.643 0.178597 139.168 0.00440119 132.349L0 132.023V88.8595C0.00279536 81.998 5.47498 76.4165 12.2864 76.2421L12.6121 76.2377H201.909C214.852 76.2377 225.345 65.7453 225.345 52.8022V12.6191C225.345 5.64986 230.995 0 237.964 0H292.046Z" fill="#FF5500"/>
</svg>
