<svg width="439" height="178" viewBox="0 0 439 178" fill="none" xmlns="http://www.w3.org/2000/svg">
<path d="M392.21 124.115C388.664 124.115 385.619 123.633 383.073 122.67C380.528 121.724 378.483 120.451 376.937 118.851C375.392 117.251 374.319 115.479 373.719 113.533L382.61 111.379C383.01 112.197 383.592 113.006 384.355 113.806C385.119 114.624 386.146 115.297 387.437 115.824C388.746 116.37 390.392 116.642 392.373 116.642C395.173 116.642 397.492 115.961 399.328 114.597C401.164 113.251 402.083 111.033 402.083 107.942V100.006H401.592C401.083 101.024 400.337 102.07 399.355 103.142C398.392 104.215 397.11 105.115 395.51 105.842C393.928 106.57 391.937 106.933 389.537 106.933C386.319 106.933 383.401 106.179 380.783 104.67C378.183 103.142 376.11 100.87 374.564 97.8515C373.037 94.8151 372.273 91.0151 372.273 86.4515C372.273 81.8515 373.037 77.9697 374.564 74.806C376.11 71.6242 378.192 69.2151 380.81 67.5787C383.428 65.9242 386.346 65.0969 389.564 65.0969C392.019 65.0969 394.037 65.5151 395.619 66.3515C397.219 67.1696 398.492 68.1606 399.437 69.3242C400.383 70.4696 401.101 71.5515 401.592 72.5697H402.137V65.6424H411.873V108.215C411.873 111.797 411.019 114.761 409.31 117.106C407.601 119.451 405.264 121.206 402.301 122.37C399.337 123.533 395.973 124.115 392.21 124.115ZM392.292 99.1878C394.383 99.1878 396.164 98.6788 397.637 97.6606C399.11 96.6424 400.228 95.1787 400.992 93.2697C401.755 91.3606 402.137 89.0697 402.137 86.3969C402.137 83.7606 401.755 81.4515 400.992 79.4697C400.246 77.4878 399.137 75.9515 397.664 74.8606C396.21 73.7515 394.419 73.1969 392.292 73.1969C390.092 73.1969 388.255 73.7697 386.783 74.9151C385.31 76.0606 384.201 77.6333 383.455 79.6333C382.71 81.6151 382.337 83.8697 382.337 86.3969C382.337 88.9606 382.71 91.206 383.455 93.1333C384.219 95.0424 385.337 96.5333 386.81 97.606C388.301 98.6606 390.128 99.1878 392.292 99.1878Z" fill="#09090B"/>
<path d="M350.916 108.351C346.825 108.351 343.279 107.451 340.279 105.651C337.279 103.851 334.952 101.333 333.297 98.0969C331.661 94.8606 330.843 91.0787 330.843 86.7515C330.843 82.4242 331.661 78.6333 333.297 75.3787C334.952 72.1242 337.279 69.5969 340.279 67.7969C343.279 65.9969 346.825 65.0969 350.916 65.0969C355.006 65.0969 358.552 65.9969 361.552 67.7969C364.552 69.5969 366.87 72.1242 368.506 75.3787C370.161 78.6333 370.988 82.4242 370.988 86.7515C370.988 91.0787 370.161 94.8606 368.506 98.0969C366.87 101.333 364.552 103.851 361.552 105.651C358.552 107.451 355.006 108.351 350.916 108.351ZM350.97 100.442C353.188 100.442 355.043 99.8333 356.534 98.6151C358.025 97.3787 359.134 95.7242 359.861 93.6515C360.606 91.5787 360.979 89.2697 360.979 86.7242C360.979 84.1606 360.606 81.8424 359.861 79.7697C359.134 77.6787 358.025 76.0151 356.534 74.7787C355.043 73.5424 353.188 72.9242 350.97 72.9242C348.697 72.9242 346.806 73.5424 345.297 74.7787C343.806 76.0151 342.688 77.6787 341.943 79.7697C341.216 81.8424 340.852 84.1606 340.852 86.7242C340.852 89.2697 341.216 91.5787 341.943 93.6515C342.688 95.7242 343.806 97.3787 345.297 98.6151C346.806 99.8333 348.697 100.442 350.97 100.442Z" fill="#09090B"/>
<path d="M327.866 51.6787V107.533H317.993V51.6787H327.866Z" fill="#09090B"/>
<path d="M275.431 107.533V51.6787H285.303V72.5696H285.712C286.222 71.5514 286.94 70.4696 287.867 69.3242C288.794 68.1605 290.049 67.1696 291.631 66.3514C293.212 65.5151 295.231 65.0969 297.685 65.0969C300.922 65.0969 303.84 65.9242 306.44 67.5787C309.058 69.2151 311.131 71.6424 312.658 74.8605C314.203 78.0605 314.976 81.9878 314.976 86.6423C314.976 91.2424 314.222 95.1514 312.712 98.3696C311.203 101.588 309.149 104.042 306.549 105.733C303.949 107.424 301.003 108.27 297.712 108.27C295.312 108.27 293.322 107.87 291.74 107.07C290.158 106.27 288.885 105.306 287.922 104.179C286.976 103.033 286.24 101.951 285.712 100.933H285.14V107.533H275.431ZM285.112 86.5878C285.112 89.2969 285.494 91.6696 286.258 93.706C287.04 95.7424 288.158 97.3333 289.612 98.4787C291.085 99.606 292.867 100.17 294.958 100.17C297.14 100.17 298.967 99.5878 300.44 98.4242C301.912 97.2424 303.022 95.6333 303.767 93.5969C304.531 91.5424 304.912 89.206 304.912 86.5878C304.912 83.9878 304.54 81.6787 303.794 79.6605C303.049 77.6424 301.94 76.0605 300.467 74.9151C298.994 73.7696 297.158 73.1969 294.958 73.1969C292.849 73.1969 291.058 73.7514 289.585 74.8605C288.112 75.9696 286.994 77.5242 286.231 79.5242C285.485 81.5242 285.112 83.8787 285.112 86.5878Z" fill="#09090B"/>
<path d="M243.443 82.9878V107.533H233.57V65.6424H243.007V72.7606H243.498C244.461 70.4151 245.998 68.5515 248.107 67.1696C250.234 65.7878 252.861 65.0969 255.988 65.0969C258.879 65.0969 261.398 65.7151 263.543 66.9515C265.707 68.1878 267.379 69.9787 268.561 72.3242C269.761 74.6697 270.352 77.5151 270.334 80.8606V107.533H260.461V82.3878C260.461 79.5878 259.734 77.3969 258.279 75.8151C256.843 74.2333 254.852 73.4424 252.307 73.4424C250.579 73.4424 249.043 73.8242 247.698 74.5878C246.37 75.3333 245.325 76.4151 244.561 77.8333C243.816 79.2515 243.443 80.9697 243.443 82.9878Z" fill="#09090B"/>
<path d="M211.968 108.351C207.768 108.351 204.14 107.479 201.086 105.733C198.049 103.97 195.713 101.479 194.077 98.2606C192.44 95.0242 191.622 91.2151 191.622 86.8333C191.622 82.5242 192.44 78.7424 194.077 75.4878C195.731 72.2151 198.04 69.6696 201.004 67.8515C203.968 66.0151 207.449 65.0969 211.449 65.0969C214.031 65.0969 216.468 65.5151 218.758 66.3515C221.068 67.1696 223.104 68.4424 224.868 70.1696C226.649 71.8969 228.049 74.0969 229.068 76.7697C230.086 79.4242 230.595 82.5878 230.595 86.2606V89.2878H196.258V82.6333H221.131C221.113 80.7424 220.704 79.0606 219.904 77.5878C219.104 76.0969 217.986 74.9242 216.549 74.0697C215.131 73.2151 213.477 72.7878 211.586 72.7878C209.568 72.7878 207.795 73.2787 206.268 74.2606C204.74 75.2242 203.549 76.4969 202.695 78.0787C201.858 79.6424 201.431 81.3606 201.413 83.2333V89.0424C201.413 91.4787 201.858 93.5697 202.749 95.3151C203.64 97.0424 204.886 98.3697 206.486 99.2969C208.086 100.206 209.958 100.661 212.104 100.661C213.54 100.661 214.84 100.461 216.004 100.061C217.168 99.6424 218.177 99.0333 219.031 98.2333C219.886 97.4333 220.531 96.4424 220.968 95.2606L230.186 96.2969C229.604 98.7333 228.495 100.861 226.858 102.679C225.24 104.479 223.168 105.879 220.64 106.879C218.113 107.861 215.222 108.351 211.968 108.351Z" fill="#09090B"/>
<path d="M156.327 107.533V101.261L177.927 74.1787V73.8242H157.036V65.6423H190.009V72.3787L169.445 98.9969V99.3514H190.718V107.533H156.327Z" fill="#09090B"/>
<g clip-path="url(#clip0_466_257)">
<path d="M100.714 121.813C101.673 122.771 101.871 124.047 101.31 125.64C100.823 127.307 99.6363 129.083 97.7513 130.968C94.43 134.29 90.947 136.372 87.3022 137.215C78.3619 139.226 69.7406 139.223 61.4386 137.204C53.2103 135.259 45.8894 131.08 39.4759 124.667C34.4631 119.654 31.0113 114.407 29.1207 108.925C27.3198 103.354 26.9951 98.0029 28.1464 92.8708C29.4613 87.7226 32.0935 83.1737 36.0431 79.224C41.9676 73.2996 49.1723 70.0019 57.6574 69.331C66.1424 68.6601 76.1435 69.8642 87.6605 72.9434L68.9872 55.3473C67.2757 53.8153 66.6957 51.8888 67.2473 49.568C67.9624 47.2311 69.3522 45.0303 71.4168 42.9658C73.5711 40.8114 75.8616 39.3318 78.2883 38.527C80.8784 37.7061 82.9107 38.0328 84.3851 39.5072C87.7761 42.8982 91.9956 47.746 97.0436 54.0507C98.1333 55.32 100.092 57.6373 102.918 61.0028C105.819 64.442 108.338 67.2305 110.476 69.3683C111.213 70.1055 112.973 71.1471 115.755 72.4931C116.214 72.7719 117.138 73.2478 118.529 73.9208C119.994 74.6675 121.095 75.4095 121.832 76.1467C123.012 77.3262 123.342 78.9128 122.822 80.9067C122.377 82.9743 120.852 85.3097 118.249 87.9129C115.377 90.7853 112.58 92.4766 109.858 92.9865C107.136 93.4965 103.968 93.2004 100.352 92.0981C90.143 88.8905 80.8071 87.0949 72.3447 86.7112C63.9719 86.2377 57.8107 87.9758 53.8611 91.9255C51.3477 94.4389 50.2415 97.4618 50.5424 100.994C50.8433 104.527 52.8736 108.173 56.6332 111.932C60.7614 116.061 66.1832 118.969 72.8986 120.657C79.6876 122.42 87.336 122.438 95.8436 120.713C97.9849 120.34 99.6085 120.707 100.714 121.813Z" fill="#FD481E"/>
</g>
<defs>
<clipPath id="clip0_466_257">
<rect width="128" height="128" fill="white" transform="translate(11 25)"/>
</clipPath>
</defs>
</svg>
